<svg width="304" height="310" viewBox="0 0 304 310" fill="none" xmlns="http://www.w3.org/2000/svg">
<g clip-path="url(#clip0_1_2)">
<circle cx="152" cy="154" r="150" fill="#4A90E2"/>
<path d="M266.368 112.791C304.475 127.049 304.475 180.951 266.369 195.21L99.17 257.773C70.4098 268.534 39.75 247.271 39.75 216.563L39.75 91.437C39.75 60.7292 70.4097 39.4657 99.17 50.2274L266.368 112.791Z" fill="white"/>
<path d="M75.8377 152.347H86.6217V156.379H75.8377V152.347ZM76.2217 161.563H88.4137V165.723H71.0697V143.323H87.9977V147.483H76.2217V161.563ZM99.9022 165.723L92.6702 148.507H97.8222L103.838 163.323H101.278L107.518 148.507H112.318L105.054 165.723H99.9022ZM125.63 165.979C123.668 165.979 121.94 165.595 120.446 164.827C118.974 164.059 117.833 163.013 117.022 161.691C116.212 160.347 115.806 158.821 115.806 157.115C115.806 155.387 116.201 153.861 116.99 152.539C117.801 151.195 118.9 150.149 120.286 149.403C121.673 148.635 123.241 148.251 124.99 148.251C126.676 148.251 128.19 148.613 129.534 149.339C130.9 150.043 131.977 151.067 132.766 152.411C133.556 153.733 133.95 155.323 133.95 157.179C133.95 157.371 133.94 157.595 133.918 157.851C133.897 158.085 133.876 158.309 133.854 158.523H119.87V155.611H131.23L129.31 156.475C129.31 155.579 129.129 154.8 128.766 154.139C128.404 153.477 127.902 152.965 127.262 152.603C126.622 152.219 125.876 152.027 125.022 152.027C124.169 152.027 123.412 152.219 122.75 152.603C122.11 152.965 121.609 153.488 121.246 154.171C120.884 154.832 120.702 155.621 120.702 156.539V157.307C120.702 158.245 120.905 159.077 121.31 159.803C121.737 160.507 122.324 161.051 123.07 161.435C123.838 161.797 124.734 161.979 125.758 161.979C126.676 161.979 127.476 161.84 128.158 161.563C128.862 161.285 129.502 160.869 130.078 160.315L132.734 163.195C131.945 164.091 130.953 164.784 129.758 165.275C128.564 165.744 127.188 165.979 125.63 165.979ZM150.938 148.251C152.303 148.251 153.519 148.528 154.586 149.083C155.674 149.616 156.527 150.448 157.146 151.579C157.765 152.688 158.074 154.117 158.074 155.867V165.723H153.082V156.635C153.082 155.248 152.773 154.224 152.154 153.563C151.557 152.901 150.703 152.571 149.594 152.571C148.805 152.571 148.09 152.741 147.45 153.083C146.831 153.403 146.341 153.904 145.978 154.587C145.637 155.269 145.466 156.144 145.466 157.211V165.723H140.474V148.507H145.242V153.275L144.346 151.835C144.965 150.683 145.85 149.797 147.002 149.179C148.154 148.56 149.466 148.251 150.938 148.251ZM172.839 165.979C170.812 165.979 169.234 165.467 168.103 164.443C166.972 163.397 166.407 161.851 166.407 159.803V144.699H171.399V159.739C171.399 160.464 171.591 161.029 171.975 161.435C172.359 161.819 172.882 162.011 173.543 162.011C174.332 162.011 175.004 161.797 175.559 161.371L176.903 164.891C176.391 165.253 175.772 165.531 175.047 165.723C174.343 165.893 173.607 165.979 172.839 165.979ZM163.751 152.731V148.891H175.687V152.731H163.751ZM188.025 152.347H198.809V156.379H188.025V152.347ZM188.409 161.563H200.601V165.723H183.257V143.323H200.185V147.483H188.409V161.563ZM218.04 165.723V162.363L217.72 161.627V155.611C217.72 154.544 217.389 153.712 216.728 153.115C216.088 152.517 215.096 152.219 213.752 152.219C212.835 152.219 211.928 152.368 211.032 152.667C210.157 152.944 209.411 153.328 208.792 153.819L207 150.331C207.939 149.669 209.069 149.157 210.392 148.795C211.715 148.432 213.059 148.251 214.424 148.251C217.048 148.251 219.085 148.869 220.536 150.107C221.987 151.344 222.712 153.275 222.712 155.899V165.723H218.04ZM212.792 165.979C211.448 165.979 210.296 165.755 209.336 165.307C208.376 164.837 207.64 164.208 207.128 163.419C206.616 162.629 206.36 161.744 206.36 160.763C206.36 159.739 206.605 158.843 207.096 158.075C207.608 157.307 208.408 156.709 209.496 156.283C210.584 155.835 212.003 155.611 213.752 155.611H218.328V158.523H214.296C213.123 158.523 212.312 158.715 211.864 159.099C211.437 159.483 211.224 159.963 211.224 160.539C211.224 161.179 211.469 161.691 211.96 162.075C212.472 162.437 213.165 162.619 214.04 162.619C214.872 162.619 215.619 162.427 216.28 162.043C216.941 161.637 217.421 161.051 217.72 160.283L218.488 162.587C218.125 163.696 217.464 164.539 216.504 165.115C215.544 165.691 214.307 165.979 212.792 165.979ZM236.222 165.979C234.75 165.979 233.331 165.808 231.966 165.467C230.622 165.104 229.555 164.656 228.766 164.123L230.43 160.539C231.219 161.029 232.147 161.435 233.214 161.755C234.302 162.053 235.369 162.203 236.414 162.203C237.566 162.203 238.377 162.064 238.846 161.787C239.337 161.509 239.582 161.125 239.582 160.635C239.582 160.229 239.39 159.931 239.006 159.739C238.643 159.525 238.153 159.365 237.534 159.259C236.915 159.152 236.233 159.045 235.486 158.939C234.761 158.832 234.025 158.693 233.278 158.523C232.531 158.331 231.849 158.053 231.23 157.691C230.611 157.328 230.11 156.837 229.726 156.219C229.363 155.6 229.182 154.8 229.182 153.819C229.182 152.731 229.491 151.771 230.11 150.939C230.75 150.107 231.667 149.456 232.862 148.987C234.057 148.496 235.486 148.251 237.15 148.251C238.323 148.251 239.518 148.379 240.734 148.635C241.95 148.891 242.963 149.264 243.774 149.755L242.11 153.307C241.278 152.816 240.435 152.485 239.582 152.315C238.75 152.123 237.939 152.027 237.15 152.027C236.041 152.027 235.23 152.176 234.718 152.475C234.206 152.773 233.95 153.157 233.95 153.627C233.95 154.053 234.131 154.373 234.494 154.587C234.878 154.8 235.379 154.971 235.998 155.099C236.617 155.227 237.289 155.344 238.014 155.451C238.761 155.536 239.507 155.675 240.254 155.867C241.001 156.059 241.673 156.336 242.27 156.699C242.889 157.04 243.39 157.52 243.774 158.139C244.158 158.736 244.35 159.525 244.35 160.507C244.35 161.573 244.03 162.523 243.39 163.355C242.75 164.165 241.822 164.805 240.606 165.275C239.411 165.744 237.95 165.979 236.222 165.979ZM259.174 165.979C257.211 165.979 255.483 165.595 253.99 164.827C252.518 164.059 251.377 163.013 250.566 161.691C249.755 160.347 249.35 158.821 249.35 157.115C249.35 155.387 249.745 153.861 250.534 152.539C251.345 151.195 252.443 150.149 253.83 149.403C255.217 148.635 256.785 148.251 258.534 148.251C260.219 148.251 261.734 148.613 263.078 149.339C264.443 150.043 265.521 151.067 266.31 152.411C267.099 153.733 267.494 155.323 267.494 157.179C267.494 157.371 267.483 157.595 267.462 157.851C267.441 158.085 267.419 158.309 267.398 158.523H253.414V155.611H264.774L262.854 156.475C262.854 155.579 262.673 154.8 262.31 154.139C261.947 153.477 261.446 152.965 260.806 152.603C260.166 152.219 259.419 152.027 258.566 152.027C257.713 152.027 256.955 152.219 256.294 152.603C255.654 152.965 255.153 153.488 254.79 154.171C254.427 154.832 254.246 155.621 254.246 156.539V157.307C254.246 158.245 254.449 159.077 254.854 159.803C255.281 160.507 255.867 161.051 256.614 161.435C257.382 161.797 258.278 161.979 259.302 161.979C260.219 161.979 261.019 161.84 261.702 161.563C262.406 161.285 263.046 160.869 263.622 160.315L266.278 163.195C265.489 164.091 264.497 164.784 263.302 165.275C262.107 165.744 260.731 165.979 259.174 165.979Z" fill="#2D5BFE"/>
</g>
<defs>
<clipPath id="clip0_1_2">
<rect width="304" height="310" fill="white"/>
</clipPath>
</defs>
</svg>
